<svg viewBox="0 0 51 12">
      <path
        d="M4.03711 3.25781C3.13477 3.25781 2.55469 3.58594 2.18555 4.05469L2.15625 3.375H0.708984V11.3438H2.20898V8.4082C2.58398 8.83594 3.21094 9.11719 4.03711 9.11719C5.63086 9.11719 6.76172 7.91016 6.76172 6.21094C6.76172 4.5 5.63086 3.25781 4.03711 3.25781ZM2.20312 6.20508C2.20312 5.30859 2.8418 4.60547 3.73242 4.60547C4.62891 4.60547 5.25586 5.29688 5.25586 6.20508C5.25586 7.0957 4.62305 7.76953 3.73242 7.76953C2.84766 7.76953 2.20312 7.0957 2.20312 6.20508ZM10.2891 9.11719C11.1621 9.11719 11.7539 8.78906 12.123 8.32031L12.1523 9H13.623V3.375H12.1523L12.123 4.05469C11.7539 3.5918 11.1621 3.25781 10.2891 3.25781C8.74219 3.25781 7.57617 4.4707 7.57617 6.17578C7.57617 7.88086 8.74219 9.11719 10.2891 9.11719ZM12.1172 6.17578C12.1172 7.07812 11.4785 7.78125 10.582 7.78125C9.67969 7.78125 9.07031 7.07812 9.07031 6.17578C9.07031 5.2793 9.67969 4.59961 10.582 4.59961C11.4785 4.59961 12.1172 5.2793 12.1172 6.17578ZM17.1035 5.56641C16.4297 5.44336 16.1836 5.30273 16.1836 5.02734C16.1836 4.69336 16.541 4.51758 17.2793 4.51758C17.8184 4.51758 18.5684 4.6582 18.9785 4.83398L19.1074 3.60938C18.6035 3.38672 17.9062 3.25781 17.2031 3.25781C15.709 3.25781 14.7363 3.97852 14.7363 5.02734C14.7363 5.95898 15.2637 6.50977 16.3477 6.69727L17.0215 6.82617C17.6777 6.94336 17.918 7.08984 17.918 7.38867C17.918 7.72266 17.6074 7.875 16.875 7.875C16.3008 7.875 15.5391 7.7168 14.9824 7.48242L14.8242 8.71289C15.334 8.96484 16.1484 9.11719 16.9922 9.11719C18.4336 9.11719 19.3711 8.49023 19.3711 7.35938C19.3711 6.38672 18.8145 5.88281 17.7012 5.67773L17.1035 5.56641ZM22.5059 5.56641C21.832 5.44336 21.5859 5.30273 21.5859 5.02734C21.5859 4.69336 21.9434 4.51758 22.6816 4.51758C23.2207 4.51758 23.9707 4.6582 24.3809 4.83398L24.5098 3.60938C24.0059 3.38672 23.3086 3.25781 22.6055 3.25781C21.1113 3.25781 20.1387 3.97852 20.1387 5.02734C20.1387 5.95898 20.666 6.50977 21.75 6.69727L22.4238 6.82617C23.0801 6.94336 23.3203 7.08984 23.3203 7.38867C23.3203 7.72266 23.0098 7.875 22.2773 7.875C21.7031 7.875 20.9414 7.7168 20.3848 7.48242L20.2266 8.71289C20.7363 8.96484 21.5508 9.11719 22.3945 9.11719C23.8359 9.11719 24.7734 8.49023 24.7734 7.35938C24.7734 6.38672 24.2168 5.88281 23.1035 5.67773L22.5059 5.56641ZM29.1738 9.11719C30.7676 9.11719 31.8984 7.88086 31.8984 6.18164C31.8984 4.4707 30.7676 3.25781 29.1738 3.25781C28.2715 3.25781 27.6914 3.58594 27.3223 4.05469V0.744141H25.8457V9H27.3164L27.3457 8.40234C27.709 8.83008 28.3477 9.11719 29.1738 9.11719ZM27.3398 6.17578C27.3398 5.2793 27.9844 4.60547 28.8691 4.60547C29.7656 4.60547 30.3926 5.26758 30.3926 6.17578C30.3926 7.06641 29.7598 7.76953 28.8691 7.76953C27.9785 7.76953 27.3398 7.06641 27.3398 6.17578ZM35.4258 9.11719C36.2988 9.11719 36.8906 8.78906 37.2598 8.32031L37.2891 9H38.7598V3.375H37.2891L37.2598 4.05469C36.8906 3.5918 36.2988 3.25781 35.4258 3.25781C33.8789 3.25781 32.7129 4.4707 32.7129 6.17578C32.7129 7.88086 33.8789 9.11719 35.4258 9.11719ZM37.2539 6.17578C37.2539 7.07812 36.6152 7.78125 35.7188 7.78125C34.8164 7.78125 34.207 7.07812 34.207 6.17578C34.207 5.2793 34.8164 4.59961 35.7188 4.59961C36.6152 4.59961 37.2539 5.2793 37.2539 6.17578ZM42.2402 5.56641C41.5664 5.44336 41.3203 5.30273 41.3203 5.02734C41.3203 4.69336 41.6777 4.51758 42.416 4.51758C42.9551 4.51758 43.7051 4.6582 44.1152 4.83398L44.2441 3.60938C43.7402 3.38672 43.043 3.25781 42.3398 3.25781C40.8457 3.25781 39.873 3.97852 39.873 5.02734C39.873 5.95898 40.4004 6.50977 41.4844 6.69727L42.1582 6.82617C42.8145 6.94336 43.0547 7.08984 43.0547 7.38867C43.0547 7.72266 42.7441 7.875 42.0117 7.875C41.4375 7.875 40.6758 7.7168 40.1191 7.48242L39.9609 8.71289C40.4707 8.96484 41.2852 9.11719 42.1289 9.11719C43.5703 9.11719 44.5078 8.49023 44.5078 7.35938C44.5078 6.38672 43.9512 5.88281 42.8379 5.67773L42.2402 5.56641ZM50.4492 7.37109C49.8926 7.63477 49.2422 7.79883 48.5449 7.79883C47.6191 7.79883 46.916 7.42383 46.7637 6.63867H50.8301C51.1992 4.55859 49.8867 3.25781 48.1582 3.25781C46.4883 3.25781 45.2695 4.46484 45.2695 6.1875C45.2695 7.93945 46.5469 9.11719 48.5391 9.11719C49.3594 9.11719 50.1152 8.90039 50.6602 8.58984L50.4492 7.37109ZM46.7871 5.63086C46.8516 4.99219 47.3906 4.52344 48.1934 4.52344C48.9668 4.52344 49.4414 5.00391 49.4824 5.63086H46.7871Z"
        fill="#033156"
      />
    </svg>
